<?xml version="1.0" encoding="utf-8"?>
<!-- Generator: Adobe Illustrator 23.0.3, SVG Export Plug-In . SVG Version: 6.00 Build 0)  -->
<svg version="1.1" id="Ebene_1" xmlns="http://www.w3.org/2000/svg" xmlns:xlink="http://www.w3.org/1999/xlink" x="0px" y="0px"
	 viewBox="0 0 471.74 408.54" style="enable-background:new 0 0 471.74 408.54;" xml:space="preserve">
<style type="text/css">
	.st0{fill:#FFFFFF;}
	.st1{fill:#03B2FB;}
	.st2{fill:#FC0579;}
	.st3{fill:#6AC01D;}
</style>
<g>
	<path class="st0" d="M353.8,0H117.93L0,204.27l117.93,204.27H353.8l117.93-204.27L353.8,0z M190.66,19.97h151.61l100.64,174.32
		H190.66V19.97z M170.7,388.57h-41.24L23.05,204.27l106.41-184.3h41.24V388.57z M342.27,388.57H190.66V214.25l252.25,0
		L342.27,388.57z"/>
	<polygon class="st1" points="170.7,19.97 129.46,19.97 23.05,204.27 129.46,388.57 170.7,388.57 	"/>
	<polygon class="st2" points="190.66,19.97 190.66,194.28 442.92,194.28 342.27,19.97 	"/>
	<polygon class="st3" points="190.66,214.25 190.66,388.57 342.27,388.57 442.92,214.25 	"/>
</g>
</svg>
