<?xml version="1.0" standalone="no"?>
<!DOCTYPE svg PUBLIC "-//W3C//DTD SVG 20010904//EN"
 "http://www.w3.org/TR/2001/REC-SVG-20010904/DTD/svg10.dtd">
<svg version="1.0" xmlns="http://www.w3.org/2000/svg"
 width="700.000000pt" height="700.000000pt" viewBox="0 0 700.000000 700.000000"
 preserveAspectRatio="xMidYMid meet">
<metadata>
Created by potrace 1.11, written by Peter Selinger 2001-2013
</metadata>
<g transform="translate(0.000000,700.000000) scale(0.100000,-0.100000)"
fill="#000000" stroke="none">
<path d="M1706 6455 c-25 -42 -46 -78 -46 -81 0 -3 -16 -30 -35 -60 -19 -30
-35 -56 -35 -58 0 -3 -26 -49 -58 -103 -32 -54 -61 -105 -65 -113 -4 -8 -17
-31 -28 -50 -30 -49 -803 -1387 -859 -1486 -10 -16 -53 -91 -95 -165 -170
-292 -404 -698 -429 -742 -14 -26 -33 -58 -42 -72 -17 -26 -34 6 396 -735 59
-102 119 -205 132 -230 14 -25 80 -139 147 -253 66 -115 121 -213 121 -218 0
-5 5 -9 10 -9 6 0 10 -4 10 -10 0 -5 27 -55 60 -111 33 -55 60 -102 60 -104 0
-2 27 -50 61 -107 34 -57 71 -121 84 -143 53 -95 54 -97 510 -885 l142 -245
1751 -3 1751 -2 55 92 c29 51 64 112 77 134 74 129 231 401 239 414 6 8 58 98
116 200 121 210 169 294 231 398 24 40 43 74 43 76 0 2 42 75 93 163 51 87 96
165 100 173 4 8 13 24 20 35 15 25 97 167 124 215 11 19 78 134 148 255 70
121 136 236 147 255 25 43 150 259 163 282 29 49 144 249 167 290 l28 48 -227
393 c-124 215 -234 406 -244 422 -11 17 -22 37 -26 45 -4 8 -26 47 -48 85 -23
39 -53 90 -67 115 -14 25 -135 234 -268 465 -134 231 -252 436 -263 455 -10
19 -23 40 -27 45 -4 6 -18 30 -32 55 -35 64 -430 748 -489 848 -27 45 -49 87
-49 92 0 7 -608 10 -1754 10 l-1755 0 -45 -75z m779 -2952 l0 -2473 -168 2
-168 3 -61 105 c-33 58 -120 209 -193 335 -73 127 -235 408 -360 625 -280 485
-370 642 -402 700 -14 25 -29 50 -33 55 -4 6 -21 35 -38 65 -16 30 -87 154
-157 275 -71 121 -139 239 -152 262 l-23 42 21 38 c11 21 29 54 41 73 11 19
101 177 201 350 99 173 212 369 250 435 38 66 77 134 87 150 9 17 28 50 42 75
150 264 774 1346 779 1350 4 3 81 5 171 5 l163 1 0 -2473z m2538 2457 c3 -3
58 -97 122 -210 65 -113 242 -421 393 -685 151 -264 286 -500 300 -525 14 -25
36 -62 49 -82 12 -21 23 -39 23 -41 0 -2 48 -86 106 -188 59 -101 118 -204
132 -229 14 -25 34 -58 44 -75 10 -16 21 -37 25 -45 3 -8 17 -32 30 -52 13
-21 22 -39 21 -39 -2 -1 -726 -2 -1610 -3 l-1608 -1 -1 35 c-3 187 0 2131 4
2137 6 9 1962 12 1970 3z m1169 -2742 l76 -3 -77 -135 c-43 -74 -127 -223
-188 -330 -61 -107 -222 -391 -358 -630 -137 -239 -258 -453 -271 -475 -12
-22 -68 -121 -124 -220 -57 -99 -116 -205 -133 -235 -17 -30 -45 -80 -63 -110
l-32 -55 -986 0 c-542 0 -986 2 -986 5 -1 10 -1 2165 -1 2177 1 7 21 13 49 15
55 4 2980 -1 3094 -4z"/>
</g>
</svg>
